<svg width="28" height="29" viewBox="0 0 28 29" fill="none" xmlns="http://www.w3.org/2000/svg">
<path d="M1.24845 13.4285C1.24845 13.4285 0.304018 12.0519 1.68146 11.1083C3.05723 10.1647 4.00083 11.5405 4.00083 11.5405L8.38178 17.9296C8.53278 17.6776 8.69798 17.429 8.88236 17.1837L2.80193 8.31753C2.80193 8.31753 1.85833 6.94176 3.23494 5.99816C4.61071 5.05456 5.55431 6.43033 5.55431 6.43033L11.2735 14.7709C11.4862 14.5974 11.704 14.423 11.9284 14.252L5.29818 4.58151C5.29818 4.58151 4.35458 3.20574 5.73118 2.26214C7.10695 1.31853 8.05056 2.69431 8.05056 2.69431L14.6808 12.3631C14.9244 12.2137 15.1655 12.0844 15.4075 11.9476L9.21024 2.91039C9.21024 2.91039 8.26664 1.53462 9.64241 0.59102C11.0182 -0.352581 11.9618 1.02319 11.9618 1.02319L18.5144 10.5793L19.5106 12.0327C15.3824 14.8643 14.9895 20.1914 17.3481 23.6312C17.8195 24.3195 18.5078 23.8482 18.5078 23.8482C15.677 19.7192 16.5413 15.0796 20.6703 12.2488L19.453 6.15668C19.453 6.15668 18.9983 4.55147 20.6027 4.09594C22.2079 3.64124 22.6634 5.24645 22.6634 5.24645L24.0692 9.42132C24.6266 11.0766 25.2198 12.726 26.0048 14.2862C28.2216 18.6913 26.8975 24.166 22.7177 27.0335C18.1582 30.1597 11.9251 28.9975 8.79809 24.4388L1.24845 13.4285Z" fill="#FFDC5D"/>
</svg>
